{"accessors" : [{"bufferView" : 0, "byteOffset" : 0, "componentType" : 5123, "count" : 2670, "type" : "SCALAR", "max" : [2195], "min" : [0]}, {"bufferView" : 1, "byteOffset" : 0, "componentType" : 5126, "count" : 2196, "type" : "VEC3", "max" : [13.33654499053955, 29.085763931274414, -174.77584838867188], "min" : [-13.288783073425293, -12.8327054977417, -193.65798950195312], "name" : "POSITION"}, {"bufferView" : 1, "byteOffset" : 12, "componentType" : 5126, "count" : 2196, "type" : "VEC3", "max" : [0.9990233778953552, 1.0000044107437134, 0.9999894499778748], "min" : [-0.9999814033508301, -0.9996570348739624, -0.9995564222335815], "name" : "NORMAL"}, {"bufferView" : 1, "byteOffset" : 24, "componentType" : 5126, "count" : 2196, "type" : "VEC2", "max" : [0.9983694553375244, 1.009095311164856], "min" : [-0.06787089258432388, 0.011339545249938965], "name" : "TEXCOORD_0"}, {"bufferView" : 1, "byteOffset" : 32, "componentType" : 5126, "count" : 2196, "type" : "VEC2", "max" : [0, 1], "min" : [0, 1], "name" : "TEXCOORD_1"}, {"bufferView" : 0, "byteOffset" : 5340, "componentType" : 5123, "count" : 1200, "type" : "SCALAR", "max" : [992], "min" : [0]}, {"bufferView" : 2, "byteOffset" : 0, "componentType" : 5126, "count" : 993, "type" : "VEC3", "max" : [12.583012580871582, 9.451080322265625, -161.56785583496094], "min" : [-12.583012580871582, -13.458233833312988, -185.52493286132812], "name" : "POSITION"}, {"bufferView" : 2, "byteOffset" : 12, "componentType" : 5126, "count" : 993, "type" : "VEC3", "max" : [0.9997240304946899, 0.9978641271591187, 0.9965496063232422], "min" : [-0.9997239112854004, -0.9841340780258179, -0.9014738202095032], "name" : "NORMAL"}, {"bufferView" : 2, "byteOffset" : 24, "componentType" : 5126, "count" : 993, "type" : "VEC2", "max" : [0.9602113366127014, 0.7984228134155273], "min" : [0.9602113366127014, 0.7984228134155273], "name" : "TEXCOORD_0"}, {"bufferView" : 2, "byteOffset" : 32, "componentType" : 5126, "count" : 993, "type" : "VEC2", "max" : [0.12475284934043884, 0.3859028220176697], "min" : [0.0030446203891187906, 0.24885797500610352], "name" : "TEXCOORD_1"}], "asset" : {"generator" : "Aspose.3D 22.1", "version" : "2.0"}, "buffers" : [{"uri" : "data:application/octet-stream;base64,", "byteLength" : 162552}], "bufferViews" : [{"buffer" : 0, "byteOffset" : 0, "byteLength" : 7740, "target" : 34963}, {"buffer" : 0, "byteOffset" : 7744, "byteLength" : 106800, "byteStride" : 40, "target" : 34962}, {"buffer" : 0, "byteOffset" : 114548, "byteLength" : 48000, "byteStride" : 40, "target" : 34962}], "images" : [{"uri" : "data:image/jpeg;base64,"}], "materials" : [{"name" : "Material", "pbrMetallicRoughness" : {"baseColorFactor" : [1, 1, 1, 1], "baseColorTexture" : {"index" : 0, "texCoord" : 0}, "metallicFactor" : 0.0873015895485878, "roughnessFactor" : 0.5}, "emissiveFactor" : [0, 0, 0], "alphaMode" : "OPAQUE", "doubleSided" : true}, {"name" : "Hair_MAT.001", "pbrMetallicRoughness" : {"baseColorFactor" : [0.800000011920929, 0.800000011920929, 0.800000011920929, 1], "metallicFactor" : 0, "roughnessFactor" : 1}, "emissiveFactor" : [0, 0, 0], "alphaMode" : "OPAQUE", "doubleSided" : true}], "meshes" : [{"primitives" : [{"attributes" : {"POSITION" : 1, "NORMAL" : 2, "TEXCOORD_0" : 3, "TEXCOORD_1" : 4}, "indices" : 0, "material" : 0, "mode" : 4}]}, {"primitives" : [{"attributes" : {"POSITION" : 6, "NORMAL" : 7, "TEXCOORD_0" : 8, "TEXCOORD_1" : 9}, "indices" : 5, "material" : 1, "mode" : 4}]}], "nodes" : [{"mesh" : 0, "name" : "M_Hat_DCL_Logo.001"}, {"children" : [0], "matrix" : [0.009999999776482582, 0, 0, 0, 0, -1.3435885348189617E-09, 0.009999999434197101, 0, 0, -0.009999999434197101, -1.3435885348189617E-09, 0, 0, 0, 0, 1], "name" : "Armature.025"}, {"mesh" : 1, "name" : "M_Hat_DCL_Logo.002"}, {"children" : [2], "matrix" : [0.009999999776482582, 0, 0, 0, 0, -1.3435885348189617E-09, 0.009999999434197101, 0, 0, -0.009999999434197101, -1.3435885348189617E-09, 0, 0, 0, 0, 1], "name" : "Armature.001"}], "samplers" : [{"magFilter" : 9729, "minFilter" : 9987, "wrapS" : 10497, "wrapT" : 10497}], "scene" : 0, "scenes" : [{"nodes" : [1, 3]}], "textures" : [{"sampler" : 0, "source" : 0}]}