<svg width="21" height="19" viewBox="0 0 21 19" fill="none" xmlns="http://www.w3.org/2000/svg">
<path d="M1.21117 10.461L1.28239 10.3491L5.57744 3.63002C5.64021 3.53165 5.78778 3.54182 5.83526 3.64868C6.55281 5.25677 7.17195 7.25672 6.8819 8.50181C6.75807 9.0141 6.41881 9.70787 6.03712 10.3491C5.98795 10.4424 5.93367 10.534 5.87598 10.6222C5.84884 10.6629 5.80304 10.6866 5.75383 10.6866H1.33668C1.21794 10.6866 1.14839 10.5577 1.21117 10.461Z" fill="white"/>
<path d="M20.3556 11.7096V12.7732C20.3556 12.8342 20.3183 12.8885 20.264 12.9122C19.9315 13.0547 18.7933 13.5772 18.3201 14.2354C17.1123 15.9164 16.1895 18.3201 14.1268 18.3201H5.52144C2.47152 18.3201 0 15.8401 0 12.7799V12.6816C0 12.6001 0.0661409 12.534 0.147571 12.534H4.94473C5.0397 12.534 5.10924 12.6222 5.10079 12.7155C5.06684 13.0276 5.12453 13.3465 5.2721 13.6366C5.55707 14.215 6.14739 14.5763 6.78519 14.5763H9.16003V12.7223H6.81233C6.6919 12.7223 6.62068 12.5831 6.69022 12.4848C6.71565 12.4457 6.74451 12.4051 6.77502 12.3593C6.99725 12.0438 7.31445 11.5535 7.62996 10.9954C7.84539 10.6189 8.05402 10.2168 8.22196 9.81312C8.25591 9.74017 8.28302 9.66551 8.31016 9.59257C8.35596 9.46365 8.40348 9.34323 8.43739 9.2228C8.47134 9.121 8.49845 9.01414 8.52559 8.91405C8.60534 8.57139 8.63925 8.20839 8.63925 7.83182C8.63925 7.68425 8.63248 7.52988 8.61891 7.38231C8.61211 7.22116 8.59177 7.05999 8.57139 6.89885C8.55782 6.75636 8.5324 6.61556 8.50525 6.46799C8.47134 6.25256 8.42382 6.03885 8.36954 5.82339L8.35088 5.74199C8.31016 5.59439 8.27625 5.45362 8.22877 5.30605C8.09474 4.84293 7.94039 4.39173 7.77753 3.96936C7.71816 3.80141 7.65031 3.64027 7.58245 3.47913C7.48239 3.23655 7.38059 3.01604 7.2873 2.80738C7.23982 2.71238 7.19911 2.62586 7.15839 2.53766C7.11259 2.43758 7.06511 2.33749 7.01759 2.24252C6.98368 2.16958 6.94465 2.10172 6.9175 2.03386L6.62745 1.49783C6.58673 1.42489 6.65459 1.33837 6.7343 1.36043L8.54937 1.85235H8.55445C8.55782 1.85235 8.55954 1.85406 8.56122 1.85406L8.80039 1.9202L9.06334 1.99487L9.16003 2.02198V0.943146C9.16003 0.422371 9.57731 0 10.093 0C10.3508 0 10.5849 0.105172 10.7529 0.276485C10.9208 0.447831 11.0259 0.681916 11.0259 0.943146V2.54447L11.2193 2.59872C11.2346 2.60384 11.2499 2.61061 11.2634 2.62078C11.3109 2.65641 11.3788 2.70898 11.4653 2.77347C11.5331 2.82772 11.6061 2.89389 11.6943 2.96175C11.869 3.10252 12.0777 3.28404 12.3067 3.4927C12.3677 3.54527 12.4271 3.59955 12.4814 3.65384C12.7766 3.92864 13.1073 4.25093 13.4228 4.60716C13.511 4.70724 13.5976 4.80901 13.6858 4.91587C13.774 5.02444 13.8673 5.1313 13.9487 5.23819C14.0556 5.38067 14.1709 5.52824 14.271 5.68262C14.3185 5.75556 14.3728 5.83019 14.4186 5.90313C14.5475 6.09819 14.6611 6.30008 14.7697 6.50193C14.8155 6.59522 14.863 6.69699 14.9037 6.79708C15.0241 7.06679 15.1191 7.34159 15.1802 7.61639C15.1988 7.67577 15.2124 7.74022 15.2192 7.79791V7.81148C15.2396 7.89288 15.2464 7.97939 15.2531 8.06759C15.2803 8.3492 15.2667 8.63076 15.2056 8.91405C15.1802 9.03451 15.1463 9.14814 15.1056 9.2686C15.0648 9.38394 15.0241 9.50437 14.9716 9.61803C14.8698 9.8538 14.7493 10.0896 14.6068 10.3101C14.561 10.3915 14.5068 10.4781 14.4525 10.5595C14.3931 10.646 14.332 10.7274 14.2778 10.8071C14.2031 10.9089 14.1234 11.0158 14.042 11.1108C13.969 11.2109 13.8944 11.3109 13.813 11.3991C13.6993 11.5331 13.5908 11.6604 13.4771 11.7825C13.4093 11.8622 13.3363 11.9437 13.2617 12.0166C13.1888 12.098 13.1141 12.1709 13.0462 12.2388C12.9326 12.3525 12.8376 12.4407 12.7579 12.5136L12.5713 12.685C12.5441 12.7087 12.5085 12.7223 12.4712 12.7223H11.0259V14.5763H12.8444C13.2515 14.5763 13.6383 14.4321 13.9504 14.1675C14.0572 14.0742 14.5237 13.6705 15.075 13.0615C15.0937 13.0411 15.1174 13.0259 15.1446 13.0191L20.1673 11.5671C20.2606 11.5399 20.3556 11.6112 20.3556 11.7096Z" fill="white"/>
</svg>
